{
  "streams": [
    {
      "index": 0,
      "codec_name": "hevc",
      "codec_long_name": "H.265 / HEVC (High Efficiency Video Coding)",
      "profile": "Main 10",
      "codec_type": "video",
      "codec_time_base": "1001/24000",
      "codec_tag_string": "[0][0][0][0]",
      "codec_tag": "0x0000",
      "width": 3840,
      "height": 2160,
      "coded_width": 3840,
      "coded_height": 2160,
      "has_b_frames": 3,
      "sample_aspect_ratio": "1:1",
      "display_aspect_ratio": "16:9",
      "pix_fmt": "yuv420p10le",
      "level": 153,
      "color_range": "tv",
      "color_space": "bt2020nc",
      "color_transfer": "smpte2084",
      "color_primaries": "bt2020",
      "refs": 1,
      "r_frame_rate": "24000/1001",
      "avg_frame_rate": "24000/1001",
      "time_base": "1/1000",
      "start_pts": 0,
      "start_time": "0.000000",
      "disposition": {
        "default": 1,
        "dub": 0,
        "original": 0,
        "comment": 0,
        "lyrics": 0,
        "karaoke": 0,
        "forced": 1,
        "hearing_impaired": 0,
        "visual_impaired": 0,
        "clean_effects": 0,
        "attached_pic": 0,
        "timed_thumbnails": 0
      },
      "tags": {
        "language": "hun",
        "title": "Blade.Runner.1982.The.Final.Cut.2160p.UHD.BluRay.REMUX.HDR.HEVC.Atmos.4X.HUN-GS88",
        "BPS": "49991281",
        "BPS-eng": "49991281",
        "DURATION": "01:57:31.378000000",
        "DURATION-eng": "01:57:31.378000000",
        "NUMBER_OF_FRAMES": "169064",
        "NUMBER_OF_FRAMES-eng": "169064",
        "NUMBER_OF_BYTES": "44063427612",
        "NUMBER_OF_BYTES-eng": "44063427612",
        "_STATISTICS_WRITING_APP": "mkvmerge v17.0.0 ('Be Ur Friend') 64-bit",
        "_STATISTICS_WRITING_APP-eng": "mkvmerge v17.0.0 ('Be Ur Friend') 64-bit",
        "_STATISTICS_WRITING_DATE_UTC": "2017-11-14 09:30:30",
        "_STATISTICS_WRITING_DATE_UTC-eng": "2017-11-14 09:30:30",
        "_STATISTICS_TAGS": "BPS DURATION NUMBER_OF_FRAMES NUMBER_OF_BYTES",
        "_STATISTICS_TAGS-eng": "BPS DURATION NUMBER_OF_FRAMES NUMBER_OF_BYTES"
      }
    },
    {
      "index": 1,
      "codec_name": "ac3",
      "codec_long_name": "ATSC A/52A (AC-3)",
      "codec_type": "audio",
      "codec_time_base": "1/48000",
      "codec_tag_string": "[0][0][0][0]",
      "codec_tag": "0x0000",
      "sample_fmt": "fltp",
      "sample_rate": "48000",
      "channels": 6,
      "channel_layout": "5.1(side)",
      "bits_per_sample": 0,
      "dmix_mode": "-1",
      "ltrt_cmixlev": "-1.000000",
      "ltrt_surmixlev": "-1.000000",
      "loro_cmixlev": "-1.000000",
      "loro_surmixlev": "-1.000000",
      "r_frame_rate": "0/0",
      "avg_frame_rate": "0/0",
      "time_base": "1/1000",
      "start_pts": 0,
      "start_time": "0.000000",
      "bit_rate": "640000",
      "disposition": {
        "default": 1,
        "dub": 0,
        "original": 0,
        "comment": 0,
        "lyrics": 0,
        "karaoke": 0,
        "forced": 1,
        "hearing_impaired": 0,
        "visual_impaired": 0,
        "clean_effects": 0,
        "attached_pic": 0,
        "timed_thumbnails": 0
      },
      "tags": {
        "language": "hun",
        "title": "Magyar 5.1 Mafilm Audio Kft. --> Pro Video",
        "BPS": "640000",
        "BPS-eng": "640000",
        "DURATION": "01:57:31.424000000",
        "DURATION-eng": "01:57:31.424000000",
        "NUMBER_OF_FRAMES": "220357",
        "NUMBER_OF_FRAMES-eng": "220357",
        "NUMBER_OF_BYTES": "564113920",
        "NUMBER_OF_BYTES-eng": "564113920",
        "_STATISTICS_WRITING_APP": "mkvmerge v17.0.0 ('Be Ur Friend') 64-bit",
        "_STATISTICS_WRITING_APP-eng": "mkvmerge v17.0.0 ('Be Ur Friend') 64-bit",
        "_STATISTICS_WRITING_DATE_UTC": "2017-11-14 09:30:30",
        "_STATISTICS_WRITING_DATE_UTC-eng": "2017-11-14 09:30:30",
        "_STATISTICS_TAGS": "BPS DURATION NUMBER_OF_FRAMES NUMBER_OF_BYTES",
        "_STATISTICS_TAGS-eng": "BPS DURATION NUMBER_OF_FRAMES NUMBER_OF_BYTES"
      }
    },
    {
      "index": 2,
      "codec_name": "ac3",
      "codec_long_name": "ATSC A/52A (AC-3)",
      "codec_type": "audio",
      "codec_time_base": "1/48000",
      "codec_tag_string": "[0][0][0][0]",
      "codec_tag": "0x0000",
      "sample_fmt": "fltp",
      "sample_rate": "48000",
      "channels": 2,
      "channel_layout": "stereo",
      "bits_per_sample": 0,
      "dmix_mode": "-1",
      "ltrt_cmixlev": "-1.000000",
      "ltrt_surmixlev": "-1.000000",
      "loro_cmixlev": "-1.000000",
      "loro_surmixlev": "-1.000000",
      "r_frame_rate": "0/0",
      "avg_frame_rate": "0/0",
      "time_base": "1/1000",
      "start_pts": 0,
      "start_time": "0.000000",
      "bit_rate": "192000",
      "disposition": {
        "default": 0,
        "dub": 0,
        "original": 0,
        "comment": 0,
        "lyrics": 0,
        "karaoke": 0,
        "forced": 0,
        "hearing_impaired": 0,
        "visual_impaired": 0,
        "clean_effects": 0,
        "attached_pic": 0,
        "timed_thumbnails": 0
      },
      "tags": {
        "language": "hun",
        "title": "Magyar 2.0 Magyar Szinkron-és Videovállalat",
        "BPS": "192000",
        "BPS-eng": "192000",
        "DURATION": "01:57:31.392000000",
        "DURATION-eng": "01:57:31.392000000",
        "NUMBER_OF_FRAMES": "220356",
        "NUMBER_OF_FRAMES-eng": "220356",
        "NUMBER_OF_BYTES": "169233408",
        "NUMBER_OF_BYTES-eng": "169233408",
        "_STATISTICS_WRITING_APP": "mkvmerge v17.0.0 ('Be Ur Friend') 64-bit",
        "_STATISTICS_WRITING_APP-eng": "mkvmerge v17.0.0 ('Be Ur Friend') 64-bit",
        "_STATISTICS_WRITING_DATE_UTC": "2017-11-14 09:30:30",
        "_STATISTICS_WRITING_DATE_UTC-eng": "2017-11-14 09:30:30",
        "_STATISTICS_TAGS": "BPS DURATION NUMBER_OF_FRAMES NUMBER_OF_BYTES",
        "_STATISTICS_TAGS-eng": "BPS DURATION NUMBER_OF_FRAMES NUMBER_OF_BYTES"
      }
    },
    {
      "index": 3,
      "codec_name": "ac3",
      "codec_long_name": "ATSC A/52A (AC-3)",
      "codec_type": "audio",
      "codec_time_base": "1/48000",
      "codec_tag_string": "[0][0][0][0]",
      "codec_tag": "0x0000",
      "sample_fmt": "fltp",
      "sample_rate": "48000",
      "channels": 2,
      "channel_layout": "stereo",
      "bits_per_sample": 0,
      "dmix_mode": "-1",
      "ltrt_cmixlev": "-1.000000",
      "ltrt_surmixlev": "-1.000000",
      "loro_cmixlev": "-1.000000",
      "loro_surmixlev": "-1.000000",
      "r_frame_rate": "0/0",
      "avg_frame_rate": "0/0",
      "time_base": "1/1000",
      "start_pts": 0,
      "start_time": "0.000000",
      "bit_rate": "192000",
      "disposition": {
        "default": 0,
        "dub": 0,
        "original": 0,
        "comment": 0,
        "lyrics": 0,
        "karaoke": 0,
        "forced": 0,
        "hearing_impaired": 0,
        "visual_impaired": 0,
        "clean_effects": 0,
        "attached_pic": 0,
        "timed_thumbnails": 0
      },
      "tags": {
        "language": "hun",
        "title": "Magyar 2.0 Mafilm Audio Kft. --> Intercom",
        "BPS": "192000",
        "BPS-eng": "192000",
        "DURATION": "01:57:31.392000000",
        "DURATION-eng": "01:57:31.392000000",
        "NUMBER_OF_FRAMES": "220356",
        "NUMBER_OF_FRAMES-eng": "220356",
        "NUMBER_OF_BYTES": "169233408",
        "NUMBER_OF_BYTES-eng": "169233408",
        "_STATISTICS_WRITING_APP": "mkvmerge v17.0.0 ('Be Ur Friend') 64-bit",
        "_STATISTICS_WRITING_APP-eng": "mkvmerge v17.0.0 ('Be Ur Friend') 64-bit",
        "_STATISTICS_WRITING_DATE_UTC": "2017-11-14 09:30:30",
        "_STATISTICS_WRITING_DATE_UTC-eng": "2017-11-14 09:30:30",
        "_STATISTICS_TAGS": "BPS DURATION NUMBER_OF_FRAMES NUMBER_OF_BYTES",
        "_STATISTICS_TAGS-eng": "BPS DURATION NUMBER_OF_FRAMES NUMBER_OF_BYTES"
      }
    },
    {
      "index": 4,
      "codec_name": "ac3",
      "codec_long_name": "ATSC A/52A (AC-3)",
      "codec_type": "audio",
      "codec_time_base": "1/48000",
      "codec_tag_string": "[0][0][0][0]",
      "codec_tag": "0x0000",
      "sample_fmt": "fltp",
      "sample_rate": "48000",
      "channels": 2,
      "channel_layout": "stereo",
      "bits_per_sample": 0,
      "dmix_mode": "-1",
      "ltrt_cmixlev": "-1.000000",
      "ltrt_surmixlev": "-1.000000",
      "loro_cmixlev": "-1.000000",
      "loro_surmixlev": "-1.000000",
      "r_frame_rate": "0/0",
      "avg_frame_rate": "0/0",
      "time_base": "1/1000",
      "start_pts": 0,
      "start_time": "0.000000",
      "bit_rate": "192000",
      "disposition": {
        "default": 0,
        "dub": 0,
        "original": 0,
        "comment": 0,
        "lyrics": 0,
        "karaoke": 0,
        "forced": 0,
        "hearing_impaired": 0,
        "visual_impaired": 0,
        "clean_effects": 0,
        "attached_pic": 0,
        "timed_thumbnails": 0
      },
      "tags": {
        "language": "hun",
        "title": "Magyar 2.0 Videovox Stúdió (Kft.)",
        "BPS": "192000",
        "BPS-eng": "192000",
        "DURATION": "01:57:31.392000000",
        "DURATION-eng": "01:57:31.392000000",
        "NUMBER_OF_FRAMES": "220356",
        "NUMBER_OF_FRAMES-eng": "220356",
        "NUMBER_OF_BYTES": "169233408",
        "NUMBER_OF_BYTES-eng": "169233408",
        "_STATISTICS_WRITING_APP": "mkvmerge v17.0.0 ('Be Ur Friend') 64-bit",
        "_STATISTICS_WRITING_APP-eng": "mkvmerge v17.0.0 ('Be Ur Friend') 64-bit",
        "_STATISTICS_WRITING_DATE_UTC": "2017-11-14 09:30:30",
        "_STATISTICS_WRITING_DATE_UTC-eng": "2017-11-14 09:30:30",
        "_STATISTICS_TAGS": "BPS DURATION NUMBER_OF_FRAMES NUMBER_OF_BYTES",
        "_STATISTICS_TAGS-eng": "BPS DURATION NUMBER_OF_FRAMES NUMBER_OF_BYTES"
      }
    },
    {
      "index": 5,
      "codec_name": "subrip",
      "codec_long_name": "SubRip subtitle",
      "codec_type": "subtitle",
      "codec_time_base": "0/1",
      "codec_tag_string": "[0][0][0][0]",
      "codec_tag": "0x0000",
      "r_frame_rate": "0/0",
      "avg_frame_rate": "0/0",
      "time_base": "1/1000",
      "start_pts": 0,
      "start_time": "0.000000",
      "duration_ts": 7051424,
      "duration": "7051.424000",
      "disposition": {
        "default": 1,
        "dub": 0,
        "original": 0,
        "comment": 0,
        "lyrics": 0,
        "karaoke": 0,
        "forced": 1,
        "hearing_impaired": 0,
        "visual_impaired": 0,
        "clean_effects": 0,
        "attached_pic": 0,
        "timed_thumbnails": 0
      },
      "tags": {
        "language": "hun",
        "title": "magyar forced",
        "BPS": "1",
        "BPS-eng": "1",
        "DURATION": "01:52:50.888000000",
        "DURATION-eng": "01:52:50.888000000",
        "NUMBER_OF_FRAMES": "36",
        "NUMBER_OF_FRAMES-eng": "36",
        "NUMBER_OF_BYTES": "1139",
        "NUMBER_OF_BYTES-eng": "1139",
        "_STATISTICS_WRITING_APP": "mkvmerge v17.0.0 ('Be Ur Friend') 64-bit",
        "_STATISTICS_WRITING_APP-eng": "mkvmerge v17.0.0 ('Be Ur Friend') 64-bit",
        "_STATISTICS_WRITING_DATE_UTC": "2017-11-14 09:30:30",
        "_STATISTICS_WRITING_DATE_UTC-eng": "2017-11-14 09:30:30",
        "_STATISTICS_TAGS": "BPS DURATION NUMBER_OF_FRAMES NUMBER_OF_BYTES",
        "_STATISTICS_TAGS-eng": "BPS DURATION NUMBER_OF_FRAMES NUMBER_OF_BYTES"
      }
    },
    {
      "index": 6,
      "codec_name": "subrip",
      "codec_long_name": "SubRip subtitle",
      "codec_type": "subtitle",
      "codec_time_base": "0/1",
      "codec_tag_string": "[0][0][0][0]",
      "codec_tag": "0x0000",
      "r_frame_rate": "0/0",
      "avg_frame_rate": "0/0",
      "time_base": "1/1000",
      "start_pts": 0,
      "start_time": "0.000000",
      "duration_ts": 7051424,
      "duration": "7051.424000",
      "disposition": {
        "default": 0,
        "dub": 0,
        "original": 0,
        "comment": 0,
        "lyrics": 0,
        "karaoke": 0,
        "forced": 0,
        "hearing_impaired": 0,
        "visual_impaired": 0,
        "clean_effects": 0,
        "attached_pic": 0,
        "timed_thumbnails": 0
      },
      "tags": {
        "language": "hun",
        "title": "magyar teljes",
        "BPS": "27",
        "BPS-eng": "27",
        "DURATION": "01:56:46.206000000",
        "DURATION-eng": "01:56:46.206000000",
        "NUMBER_OF_FRAMES": "806",
        "NUMBER_OF_FRAMES-eng": "806",
        "NUMBER_OF_BYTES": "23940",
        "NUMBER_OF_BYTES-eng": "23940",
        "_STATISTICS_WRITING_APP": "mkvmerge v17.0.0 ('Be Ur Friend') 64-bit",
        "_STATISTICS_WRITING_APP-eng": "mkvmerge v17.0.0 ('Be Ur Friend') 64-bit",
        "_STATISTICS_WRITING_DATE_UTC": "2017-11-14 09:30:30",
        "_STATISTICS_WRITING_DATE_UTC-eng": "2017-11-14 09:30:30",
        "_STATISTICS_TAGS": "BPS DURATION NUMBER_OF_FRAMES NUMBER_OF_BYTES",
        "_STATISTICS_TAGS-eng": "BPS DURATION NUMBER_OF_FRAMES NUMBER_OF_BYTES"
      }
    },
    {
      "index": 7,
      "codec_name": "truehd",
      "codec_long_name": "TrueHD",
      "codec_type": "audio",
      "codec_time_base": "1/48000",
      "codec_tag_string": "[0][0][0][0]",
      "codec_tag": "0x0000",
      "sample_fmt": "s32",
      "sample_rate": "48000",
      "channels": 8,
      "channel_layout": "7.1",
      "bits_per_sample": 0,
      "r_frame_rate": "0/0",
      "avg_frame_rate": "0/0",
      "time_base": "1/1000",
      "start_pts": 0,
      "start_time": "0.000000",
      "bits_per_raw_sample": "24",
      "disposition": {
        "default": 0,
        "dub": 0,
        "original": 0,
        "comment": 0,
        "lyrics": 0,
        "karaoke": 0,
        "forced": 0,
        "hearing_impaired": 0,
        "visual_impaired": 0,
        "clean_effects": 0,
        "attached_pic": 0,
        "timed_thumbnails": 0
      },
      "tags": {
        "language": "eng",
        "title": "Angol 7.1",
        "BPS": "4336119",
        "BPS-eng": "4336119",
        "DURATION": "01:57:31.379000000",
        "DURATION-eng": "01:57:31.379000000",
        "NUMBER_OF_FRAMES": "8461654",
        "NUMBER_OF_FRAMES-eng": "8461654",
        "NUMBER_OF_BYTES": "3821952546",
        "NUMBER_OF_BYTES-eng": "3821952546",
        "_STATISTICS_WRITING_APP": "mkvmerge v17.0.0 ('Be Ur Friend') 64-bit",
        "_STATISTICS_WRITING_APP-eng": "mkvmerge v17.0.0 ('Be Ur Friend') 64-bit",
        "_STATISTICS_WRITING_DATE_UTC": "2017-11-14 09:30:30",
        "_STATISTICS_WRITING_DATE_UTC-eng": "2017-11-14 09:30:30",
        "_STATISTICS_TAGS": "BPS DURATION NUMBER_OF_FRAMES NUMBER_OF_BYTES",
        "_STATISTICS_TAGS-eng": "BPS DURATION NUMBER_OF_FRAMES NUMBER_OF_BYTES"
      }
    },
    {
      "index": 8,
      "codec_name": "ac3",
      "codec_long_name": "ATSC A/52A (AC-3)",
      "codec_type": "audio",
      "codec_time_base": "1/48000",
      "codec_tag_string": "[0][0][0][0]",
      "codec_tag": "0x0000",
      "sample_fmt": "fltp",
      "sample_rate": "48000",
      "channels": 6,
      "channel_layout": "5.1(side)",
      "bits_per_sample": 0,
      "dmix_mode": "-1",
      "ltrt_cmixlev": "-1.000000",
      "ltrt_surmixlev": "-1.000000",
      "loro_cmixlev": "-1.000000",
      "loro_surmixlev": "-1.000000",
      "r_frame_rate": "0/0",
      "avg_frame_rate": "0/0",
      "time_base": "1/1000",
      "start_pts": 0,
      "start_time": "0.000000",
      "bit_rate": "448000",
      "disposition": {
        "default": 0,
        "dub": 0,
        "original": 0,
        "comment": 0,
        "lyrics": 0,
        "karaoke": 0,
        "forced": 0,
        "hearing_impaired": 0,
        "visual_impaired": 0,
        "clean_effects": 0,
        "attached_pic": 0,
        "timed_thumbnails": 0
      },
      "tags": {
        "language": "eng",
        "title": "angol 5.1",
        "BPS": "448000",
        "BPS-eng": "448000",
        "DURATION": "01:57:31.392000000",
        "DURATION-eng": "01:57:31.392000000",
        "NUMBER_OF_FRAMES": "220356",
        "NUMBER_OF_FRAMES-eng": "220356",
        "NUMBER_OF_BYTES": "394877952",
        "NUMBER_OF_BYTES-eng": "394877952",
        "_STATISTICS_WRITING_APP": "mkvmerge v17.0.0 ('Be Ur Friend') 64-bit",
        "_STATISTICS_WRITING_APP-eng": "mkvmerge v17.0.0 ('Be Ur Friend') 64-bit",
        "_STATISTICS_WRITING_DATE_UTC": "2017-11-14 09:30:30",
        "_STATISTICS_WRITING_DATE_UTC-eng": "2017-11-14 09:30:30",
        "_STATISTICS_TAGS": "BPS DURATION NUMBER_OF_FRAMES NUMBER_OF_BYTES",
        "_STATISTICS_TAGS-eng": "BPS DURATION NUMBER_OF_FRAMES NUMBER_OF_BYTES"
      }
    },
    {
      "index": 9,
      "codec_name": "hdmv_pgs_subtitle",
      "codec_long_name": "HDMV Presentation Graphic Stream subtitles",
      "codec_type": "subtitle",
      "codec_time_base": "0/1",
      "codec_tag_string": "[0][0][0][0]",
      "codec_tag": "0x0000",
      "r_frame_rate": "0/0",
      "avg_frame_rate": "0/0",
      "time_base": "1/1000",
      "start_pts": 0,
      "start_time": "0.000000",
      "duration_ts": 7051424,
      "duration": "7051.424000",
      "disposition": {
        "default": 0,
        "dub": 0,
        "original": 0,
        "comment": 0,
        "lyrics": 0,
        "karaoke": 0,
        "forced": 0,
        "hearing_impaired": 0,
        "visual_impaired": 0,
        "clean_effects": 0,
        "attached_pic": 0,
        "timed_thumbnails": 0
      },
      "tags": {
        "language": "eng",
        "title": "angol SDH",
        "BPS": "16607",
        "BPS-eng": "16607",
        "DURATION": "01:52:56.228000000",
        "DURATION-eng": "01:52:56.228000000",
        "NUMBER_OF_FRAMES": "1790",
        "NUMBER_OF_FRAMES-eng": "1790",
        "NUMBER_OF_BYTES": "14067433",
        "NUMBER_OF_BYTES-eng": "14067433",
        "_STATISTICS_WRITING_APP": "mkvmerge v17.0.0 ('Be Ur Friend') 64-bit",
        "_STATISTICS_WRITING_APP-eng": "mkvmerge v17.0.0 ('Be Ur Friend') 64-bit",
        "_STATISTICS_WRITING_DATE_UTC": "2017-11-14 09:30:30",
        "_STATISTICS_WRITING_DATE_UTC-eng": "2017-11-14 09:30:30",
        "_STATISTICS_TAGS": "BPS DURATION NUMBER_OF_FRAMES NUMBER_OF_BYTES",
        "_STATISTICS_TAGS-eng": "BPS DURATION NUMBER_OF_FRAMES NUMBER_OF_BYTES"
      }
    }
  ],
  "format": {
    "filename": "Blade Runner (1982)/Blade Runner (1982).mkv",
    "nb_streams": 10,
    "nb_programs": 0,
    "format_name": "matroska,webm",
    "format_long_name": "Matroska / WebM",
    "start_time": "0.000000",
    "duration": "7051.424000",
    "size": "49421399422",
    "bit_rate": "56069695",
    "probe_score": 100,
    "tags": {
      "title": "Blade.Runner.1982.The.Final.Cut.2160p.UHD.BluRay.REMUX.HDR.HEVC.Atmos.4X.HUN-GS88",
      "encoder": "libebml v1.3.5 + libmatroska v1.4.8",
      "creation_time": "2017-11-14T09:30:30.000000Z"
    }
  }
}
